<?xml version="1.0" encoding="UTF-8"?>
<svg xmlns="http://www.w3.org/2000/svg" xmlns:xlink="http://www.w3.org/1999/xlink" viewBox="0 0 200 200" width="200px" height="200px">
<g id="surface147454477">
<path style=" stroke:none;fill-rule:nonzero;fill:rgb(100%,81.960785%,40.000001%);fill-opacity:1;" d="M 175.640625 48.015625 L 108.28125 10.15625 C 103.171875 7.296875 96.828125 7.296875 91.71875 10.15625 L 24.359375 48.015625 C 19.203125 50.90625 16 56.328125 16 62.140625 L 16 137.859375 C 16 143.671875 19.203125 149.09375 24.359375 151.984375 L 91.71875 189.84375 C 94.28125 191.28125 97.140625 192 100 192 C 102.859375 192 105.71875 191.28125 108.28125 189.84375 L 175.640625 151.984375 C 180.796875 149.09375 184 143.671875 184 137.859375 L 184 62.140625 C 184 56.328125 180.796875 50.90625 175.640625 48.015625 Z M 100 148 C 73.53125 148 52 126.46875 52 100 C 52 73.53125 73.53125 52 100 52 C 115.125 52 129.09375 59.015625 138.171875 70.96875 L 120.640625 81.109375 C 115.375 75.34375 107.890625 72 100 72 C 84.5625 72 72 84.5625 72 100 C 72 115.4375 84.5625 128 100 128 C 107.890625 128 115.375 124.65625 120.640625 118.890625 L 138.171875 129.03125 C 129.09375 140.984375 115.125 148 100 148 Z M 148 104 L 140 104 L 140 112 L 132 112 L 132 104 L 124 104 L 124 96 L 132 96 L 132 88 L 140 88 L 140 96 L 148 96 Z M 176 104 L 168 104 L 168 112 L 160 112 L 160 104 L 152 104 L 152 96 L 160 96 L 160 88 L 168 88 L 168 96 L 176 96 Z M 176 104 "/>
</g>
</svg>
