<?xml version="1.0" encoding="UTF-8"?>
<svg xmlns="http://www.w3.org/2000/svg" xmlns:xlink="http://www.w3.org/1999/xlink" viewBox="0 0 40 40" width="40px" height="40px">
<g id="surface148194738">
<path style=" stroke:none;fill-rule:nonzero;fill:rgb(100%,81.960785%,40.000001%);fill-opacity:1;" d="M 18.167969 3.5 C 10.5 4.332031 4.332031 10.5 3.5 18 C 2.667969 25.832031 7.167969 32.832031 14 35.5 C 14.5 35.667969 15 35.332031 15 34.667969 L 15 32 C 15 32 14.332031 32.167969 13.5 32.167969 C 11.167969 32.167969 10.167969 30.167969 10 29 C 9.832031 28.332031 9.5 27.832031 9 27.332031 C 8.5 27.167969 8.332031 27.167969 8.332031 27 C 8.332031 26.667969 8.832031 26.667969 9 26.667969 C 10 26.667969 10.832031 27.832031 11.167969 28.332031 C 12 29.667969 13 30 13.5 30 C 14.167969 30 14.667969 29.832031 15 29.667969 C 15.167969 28.5 15.667969 27.332031 16.667969 26.667969 C 12.832031 25.832031 10 23.667969 10 20 C 10 18.167969 10.832031 16.332031 12 15 C 11.832031 14.667969 11.667969 13.832031 11.667969 12.667969 C 11.667969 12 11.667969 11 12.167969 10 C 12.167969 10 14.5 10 16.832031 12.167969 C 17.667969 11.832031 18.832031 11.667969 20 11.667969 C 21.167969 11.667969 22.332031 11.832031 23.332031 12.167969 C 25.5 10 28 10 28 10 C 28.332031 11 28.332031 12 28.332031 12.667969 C 28.332031 14 28.167969 14.667969 28 15 C 29.167969 16.332031 30 18 30 20 C 30 23.667969 27.167969 25.832031 23.332031 26.667969 C 24.332031 27.5 25 29 25 30.5 L 25 34.832031 C 25 35.332031 25.5 35.832031 26.167969 35.667969 C 32.332031 33.167969 36.667969 27.167969 36.667969 20.167969 C 36.667969 10.167969 28.167969 2.332031 18.167969 3.5 Z M 18.167969 3.5 "/>
</g>
</svg>
