<?xml version="1.0" encoding="UTF-8"?>
<svg xmlns="http://www.w3.org/2000/svg" xmlns:xlink="http://www.w3.org/1999/xlink" viewBox="0 0 200 200" width="200px" height="200px">
<g id="surface147456947">
<path style=" stroke:none;fill-rule:nonzero;fill:rgb(100%,81.960785%,40.000001%);fill-opacity:1;" d="M 181.097656 9.300781 C 180.335938 8.472656 179.269531 8 178.144531 8 L 21.855469 8 C 20.730469 8 19.664062 8.472656 18.902344 9.300781 C 18.144531 10.128906 17.773438 11.238281 17.871094 12.355469 L 31.953125 170.0625 C 32.101562 171.710938 33.246094 173.101562 34.839844 173.554688 L 98.878906 191.847656 C 99.234375 191.949219 99.609375 192 99.976562 192 C 100.34375 192 100.714844 191.949219 101.070312 191.847656 L 165.167969 173.554688 C 166.761719 173.101562 167.90625 171.710938 168.054688 170.0625 L 182.128906 12.355469 C 182.226562 11.238281 181.851562 10.128906 181.097656 9.300781 Z M 48 116.015625 L 76 123.785156 L 76 44 L 92 44 L 92 148 L 48 135.796875 Z M 152.214844 88 L 148 137 L 108 148 L 108 129.597656 L 135 122.175781 L 136 107.175781 L 108 112 L 108 44 L 156 44 L 154.621094 60 L 124 60 L 124 92 Z M 152.214844 88 "/>
</g>
</svg>
