<?xml version="1.0" encoding="UTF-8"?>
<svg xmlns="http://www.w3.org/2000/svg" xmlns:xlink="http://www.w3.org/1999/xlink" viewBox="0 0 40 40" width="40px" height="40px">
<g id="surface148393255">
<path style=" stroke:none;fill-rule:nonzero;fill:rgb(100%,81.960785%,40.000001%);fill-opacity:1;" d="M 20 1.601562 C 9.855469 1.601562 1.601562 9.855469 1.601562 20 C 1.601562 30.144531 9.855469 38.398438 20 38.398438 C 30.144531 38.398438 38.398438 30.144531 38.398438 20 C 38.398438 9.855469 30.144531 1.601562 20 1.601562 Z M 14.398438 28 L 11.199219 28 L 11.199219 16 L 14.398438 16 Z M 12.800781 13.601562 C 11.914062 13.601562 11.199219 12.882812 11.199219 12 C 11.199219 11.117188 11.914062 10.398438 12.800781 10.398438 C 13.683594 10.398438 14.398438 11.117188 14.398438 12 C 14.398438 12.882812 13.683594 13.601562 12.800781 13.601562 Z M 29.601562 28 L 26.398438 28 L 26.398438 22 C 26.398438 20.460938 25.140625 19.199219 23.601562 19.199219 C 22.058594 19.199219 20.800781 20.460938 20.800781 22 L 20.800781 28 L 17.601562 28 L 17.601562 16 L 20.800781 16 L 20.800781 17.453125 C 21.734375 16.554688 23 16 24.398438 16 C 27.273438 16 29.601562 18.328125 29.601562 21.199219 Z M 29.601562 28 "/>
</g>
</svg>
