<?xml version="1.0" encoding="UTF-8"?>
<svg xmlns="http://www.w3.org/2000/svg" xmlns:xlink="http://www.w3.org/1999/xlink" viewBox="0 0 200 200" width="200px" height="200px">
<g id="surface147387852">
<path style=" stroke:none;fill-rule:nonzero;fill:rgb(100%,81.960785%,40.000001%);fill-opacity:1;" d="M 99.964844 18.75 C 97.683594 18.75 95.402344 19.308594 93.433594 20.433594 L 31.492188 56.1875 C 27.492188 58.5 25 62.878906 25 67.503906 L 25 132.375 C 25 137.0625 27.492188 141.375 31.492188 143.6875 L 47.753906 153.0625 C 55.628906 156.9375 58.4375 156.933594 62 156.933594 C 73.6875 156.933594 80.371094 149.871094 80.371094 137.621094 L 80.371094 70.691406 C 80.371094 69.691406 79.5625 68.871094 78.5625 68.871094 L 70.75 68.871094 C 69.6875 68.871094 68.933594 69.691406 68.933594 70.691406 L 68.933594 137.5625 C 68.933594 143.0625 63.253906 148.433594 54.066406 143.871094 L 37.0625 134.058594 C 36.4375 133.746094 36.058594 133.0625 36.058594 132.375 L 36.058594 67.566406 C 36.058594 66.816406 36.4375 66.183594 37.0625 65.808594 L 99 30.066406 C 99.5625 29.691406 100.316406 29.691406 100.941406 30.066406 L 162.878906 65.808594 C 163.503906 66.183594 163.878906 66.816406 163.878906 67.503906 L 163.878906 132.375 C 163.878906 133.0625 163.503906 133.746094 162.941406 134.058594 L 100.941406 169.875 C 100.378906 170.1875 99.5625 170.1875 99 169.875 L 83.058594 160.4375 C 82.621094 160.125 82.003906 160.066406 81.566406 160.316406 C 77.128906 162.816406 76.316406 163.125 72.191406 164.5625 C 71.191406 164.875 69.628906 165.5 72.753906 167.25 L 93.433594 179.503906 C 95.433594 180.628906 97.6875 181.25 99.9375 181.25 C 102.25 181.25 104.496094 180.628906 106.496094 179.503906 L 168.507812 143.6875 C 172.507812 141.375 175 137.0625 175 132.375 L 175 67.566406 C 175 62.878906 172.507812 58.5625 168.507812 56.25 L 106.496094 20.433594 C 104.527344 19.308594 102.246094 18.75 99.964844 18.75 Z M 116.625 68.785156 C 98.9375 68.785156 88.378906 76.28125 88.378906 88.78125 C 88.378906 102.34375 98.871094 106.089844 115.871094 107.777344 C 136.183594 109.777344 137.746094 112.785156 137.746094 116.785156 C 137.746094 123.660156 132.191406 126.597656 119.128906 126.597656 C 102.691406 126.597656 99.0625 122.46875 97.875 114.34375 C 97.75 113.46875 97.003906 112.84375 96.128906 112.84375 L 88.0625 112.84375 C 87.0625 112.84375 86.316406 113.664062 86.316406 114.601562 C 86.316406 125.039062 92.003906 137.464844 119.128906 137.464844 C 138.753906 137.464844 150 129.722656 150 116.222656 C 150 102.847656 140.9375 99.277344 121.9375 96.714844 C 102.625 94.214844 100.683594 92.902344 100.683594 88.402344 C 100.683594 84.652344 102.375 79.722656 116.625 79.722656 C 129.3125 79.722656 134.0625 82.464844 136 91.027344 C 136.1875 91.839844 136.871094 92.46875 137.746094 92.46875 L 145.8125 92.46875 C 146.3125 92.46875 146.746094 92.21875 147.121094 91.84375 C 147.433594 91.53125 147.621094 91.027344 147.558594 90.464844 C 146.308594 75.714844 136.5 68.785156 116.625 68.785156 Z M 116.625 68.785156 "/>
</g>
</svg>
