<?xml version="1.0" encoding="UTF-8"?>
<svg xmlns="http://www.w3.org/2000/svg" xmlns:xlink="http://www.w3.org/1999/xlink" viewBox="0 0 200 200" width="200px" height="200px">
<g id="surface147689730">
<path style=" stroke:none;fill-rule:nonzero;fill:rgb(100%,81.960785%,40.000001%);fill-opacity:1;" d="M 100 31.25 C 68.824219 31.25 68.75 43.75 68.75 43.75 L 68.75 68.75 L 106.25 68.75 L 106.25 75 L 43.75 75 C 43.75 75 25 72.117188 25 106.25 C 25 140.382812 43.75 137.5 43.75 137.5 L 62.5 137.5 L 62.5 127.34375 C 62.5 112.28125 74.78125 100 89.84375 100 L 110.15625 100 C 121.777344 100 131.25 96.777344 131.25 85.15625 L 131.25 43.75 C 131.25 43.75 131.175781 31.25 100 31.25 Z M 81.25 43.75 C 84.691406 43.75 87.5 46.558594 87.5 50 C 87.5 53.441406 84.691406 56.25 81.25 56.25 C 77.808594 56.25 75 53.441406 75 50 C 75 46.558594 77.808594 43.75 81.25 43.75 Z M 137.5 68.75 L 137.5 85.15625 C 137.5 100.21875 125.21875 106.25 110.15625 106.25 L 89.84375 106.25 C 78.222656 106.25 68.75 115.722656 68.75 127.34375 L 68.75 162.5 C 68.75 162.5 69.140625 175 100 175 C 130.859375 175 131.25 162.5 131.25 162.5 L 131.25 137.5 L 93.75 137.5 L 93.75 131.25 L 156.25 131.25 C 156.25 131.25 175 134.398438 175 100 C 175 65.601562 156.25 68.75 156.25 68.75 Z M 118.75 150 C 122.191406 150 125 152.808594 125 156.25 C 125 159.691406 122.191406 162.5 118.75 162.5 C 115.308594 162.5 112.5 159.691406 112.5 156.25 C 112.5 152.808594 115.308594 150 118.75 150 Z M 118.75 150 "/>
</g>
</svg>
