<?xml version="1.0" encoding="UTF-8"?>
<svg xmlns="http://www.w3.org/2000/svg" xmlns:xlink="http://www.w3.org/1999/xlink" viewBox="0 0 200 200" width="200px" height="200px">
<g id="surface147462245">
<path style=" stroke:none;fill-rule:nonzero;fill:rgb(100%,81.960785%,40.000001%);fill-opacity:1;" d="M 138.21875 15.9375 C 135.101562 15.832031 131.835938 16.375 128.5625 17.4375 C 122.015625 19.558594 115.15625 23.695312 108.117188 29.421875 C 105.359375 31.667969 102.574219 34.230469 99.78125 36.953125 C 97.050781 34.300781 94.324219 31.796875 91.625 29.601562 C 84.589844 23.878906 77.75 19.75 71.21875 17.632812 C 64.6875 15.515625 58.1875 15.449219 52.851562 18.53125 C 47.515625 21.613281 44.324219 27.269531 42.890625 33.984375 C 41.457031 40.699219 41.609375 48.695312 43.046875 57.648438 C 43.546875 60.757812 44.265625 64.019531 45.078125 67.34375 C 42.027344 68.269531 39.066406 69.238281 36.320312 70.3125 C 28.03125 73.550781 21.171875 77.421875 16.179688 82.03125 C 11.1875 86.640625 7.960938 92.234375 7.960938 98.375 C 7.960938 104.515625 11.1875 110.101562 16.179688 114.710938 C 21.171875 119.320312 28.03125 123.199219 36.320312 126.4375 C 39.257812 127.585938 42.4375 128.617188 45.71875 129.59375 C 44.539062 134.003906 43.582031 138.285156 42.929688 142.34375 C 41.492188 151.304688 41.339844 159.300781 42.773438 166.03125 C 44.207031 172.761719 47.402344 178.449219 52.765625 181.546875 C 58.128906 184.644531 64.65625 184.566406 71.203125 182.445312 C 77.75 180.324219 84.601562 176.195312 91.640625 170.46875 C 94.375 168.246094 97.140625 165.707031 99.90625 163.015625 C 102.6875 165.722656 105.464844 168.273438 108.210938 170.507812 C 115.246094 176.230469 122.09375 180.359375 128.625 182.476562 C 135.15625 184.59375 141.648438 184.660156 146.984375 181.578125 C 152.320312 178.496094 155.511719 172.839844 156.945312 166.125 C 158.378906 159.410156 158.21875 151.414062 156.78125 142.460938 C 156.128906 138.390625 155.171875 134.105469 153.984375 129.679688 C 157.375 128.679688 160.65625 127.617188 163.679688 126.4375 C 171.96875 123.199219 178.828125 119.320312 183.820312 114.710938 C 188.816406 110.101562 192.039062 104.515625 192.039062 98.375 C 192.039062 92.234375 188.816406 86.640625 183.820312 82.03125 C 178.828125 77.421875 171.96875 73.550781 163.679688 70.3125 C 160.894531 69.222656 157.886719 68.238281 154.789062 67.304688 C 155.605469 63.960938 156.332031 60.675781 156.835938 57.546875 C 158.273438 48.585938 158.425781 40.582031 156.992188 33.851562 C 155.558594 27.121094 152.355469 21.441406 146.992188 18.34375 C 144.308594 16.796875 141.335938 16.042969 138.21875 15.9375 Z M 137.851562 24.078125 C 139.808594 24.132812 141.476562 24.597656 142.90625 25.421875 C 145.761719 27.070312 147.875 30.28125 149 35.5625 C 150.125 40.84375 150.085938 47.980469 148.757812 56.257812 C 148.300781 59.089844 147.640625 62.09375 146.890625 65.171875 C 138.710938 63.203125 129.746094 61.742188 120.195312 60.882812 C 115.394531 54.234375 110.464844 48.183594 105.492188 42.8125 C 108.121094 40.246094 110.730469 37.847656 113.28125 35.773438 C 119.785156 30.484375 125.941406 26.882812 131.078125 25.21875 C 133.648438 24.386719 135.894531 24.023438 137.851562 24.078125 Z M 61.945312 24.101562 C 63.914062 24.046875 66.164062 24.40625 68.742188 25.242188 C 73.894531 26.914062 80.0625 30.511719 86.570312 35.804688 C 89.066406 37.835938 91.621094 40.183594 94.195312 42.6875 C 89.1875 48.101562 84.222656 54.214844 79.390625 60.921875 C 69.871094 61.796875 60.941406 63.273438 52.796875 65.25 C 52.050781 62.1875 51.398438 59.195312 50.945312 56.375 C 49.613281 48.089844 49.582031 40.945312 50.710938 35.648438 C 51.839844 30.351562 53.96875 27.125 56.851562 25.460938 C 58.292969 24.628906 59.976562 24.15625 61.945312 24.101562 Z M 99.90625 48.570312 C 103.164062 52.117188 106.425781 55.996094 109.65625 60.171875 C 106.480469 60.039062 103.265625 59.960938 100 59.960938 C 96.667969 59.960938 93.394531 60.042969 90.15625 60.179688 C 93.390625 56 96.648438 52.117188 99.90625 48.570312 Z M 100 68.039062 C 105.441406 68.039062 110.742188 68.261719 115.898438 68.640625 C 119.445312 73.738281 122.914062 79.144531 126.21875 84.867188 C 129.121094 89.894531 131.75 94.917969 134.140625 99.875 C 131.722656 104.898438 129.054688 109.988281 126.109375 115.085938 C 123.519531 119.574219 120.8125 123.835938 118.0625 127.945312 C 112.238281 128.433594 106.203125 128.703125 100 128.703125 C 93.648438 128.703125 87.476562 128.417969 81.523438 127.90625 C 78.820312 123.855469 76.160156 119.648438 73.609375 115.234375 C 70.671875 110.148438 68.015625 105.078125 65.601562 100.0625 C 68.023438 95.019531 70.695312 89.914062 73.648438 84.796875 C 76.933594 79.105469 80.394531 73.726562 83.921875 68.65625 C 89.132812 68.269531 94.496094 68.039062 100 68.039062 Z M 126.203125 69.640625 C 132.792969 70.464844 138.984375 71.605469 144.742188 72.976562 C 143.03125 78.582031 140.925781 84.433594 138.375 90.476562 C 136.71875 87.28125 135.003906 84.078125 133.148438 80.867188 C 130.902344 76.976562 128.566406 73.265625 126.203125 69.640625 Z M 73.375 69.703125 C 71.058594 73.261719 68.78125 76.898438 66.578125 80.710938 C 64.699219 83.964844 62.949219 87.210938 61.273438 90.445312 C 58.742188 84.441406 56.652344 78.621094 54.953125 73.046875 C 60.671875 71.671875 66.828125 70.535156 73.375 69.703125 Z M 152.65625 75.101562 C 155.492188 75.960938 158.230469 76.855469 160.742188 77.835938 C 168.382812 80.820312 174.425781 84.355469 178.34375 87.96875 C 182.261719 91.582031 183.960938 95.03125 183.960938 98.375 C 183.960938 101.71875 182.261719 105.167969 178.34375 108.78125 C 174.425781 112.394531 168.382812 115.929688 160.742188 118.914062 C 157.949219 120.003906 154.882812 120.992188 151.695312 121.929688 C 149.421875 114.894531 146.519531 107.554688 143.0625 100.0625 C 147.035156 91.460938 150.246094 83.074219 152.65625 75.101562 Z M 47.210938 75.140625 C 49.59375 83.03125 52.761719 91.335938 56.679688 99.851562 C 53.203125 107.386719 50.285156 114.769531 48 121.84375 C 44.925781 120.933594 41.960938 119.96875 39.257812 118.914062 C 31.617188 115.929688 25.574219 112.394531 21.65625 108.78125 C 17.738281 105.167969 16.039062 101.71875 16.039062 98.375 C 16.039062 95.03125 17.738281 91.582031 21.65625 87.96875 C 25.574219 84.355469 31.617188 80.820312 39.257812 77.835938 C 41.730469 76.871094 44.421875 75.988281 47.210938 75.140625 Z M 100 80 C 89 80 80 89 80 100 C 80 111 89 120 100 120 C 111 120 120 111 120 100 C 120 89 111 80 100 80 Z M 100 88 C 106.675781 88 112 93.324219 112 100 C 112 106.675781 106.675781 112 100 112 C 93.324219 112 88 106.675781 88 100 C 88 93.324219 93.324219 88 100 88 Z M 138.476562 109.453125 C 140.574219 114.417969 142.398438 119.277344 143.929688 123.960938 C 139.121094 125.078125 133.996094 126.015625 128.609375 126.757812 C 130.160156 124.28125 131.691406 121.761719 133.1875 119.171875 C 135.0625 115.925781 136.804688 112.683594 138.476562 109.453125 Z M 61.367188 109.460938 C 63.050781 112.710938 64.800781 115.96875 66.6875 119.234375 C 68.164062 121.792969 69.671875 124.289062 71.203125 126.734375 C 65.832031 125.988281 60.726562 125.046875 55.929688 123.929688 C 57.453125 119.257812 59.277344 114.410156 61.367188 109.460938 Z M 53.625 131.695312 C 60.863281 133.410156 68.710938 134.726562 77.03125 135.585938 C 82.585938 143.621094 88.371094 150.835938 94.195312 157.148438 C 91.589844 159.6875 89.011719 162.070312 86.484375 164.125 C 79.980469 169.414062 73.816406 173.007812 68.679688 174.671875 C 63.542969 176.335938 59.707031 176.117188 56.851562 174.46875 C 53.996094 172.820312 51.890625 169.609375 50.765625 164.328125 C 49.640625 159.046875 49.671875 151.917969 51 143.640625 C 51.601562 139.886719 52.503906 135.867188 53.625 131.695312 Z M 146.242188 131.726562 C 147.371094 135.921875 148.277344 139.960938 148.882812 143.734375 C 150.214844 152.019531 150.246094 159.15625 149.117188 164.453125 C 147.988281 169.75 145.867188 172.984375 142.984375 174.648438 C 140.101562 176.3125 136.238281 176.539062 131.085938 174.867188 C 125.933594 173.195312 119.765625 169.589844 113.257812 164.296875 C 110.714844 162.226562 108.113281 159.832031 105.492188 157.273438 C 111.355469 150.9375 117.183594 143.683594 122.773438 135.601562 C 131.113281 134.75 138.984375 133.441406 146.242188 131.726562 Z M 87.46875 136.40625 C 91.574219 136.628906 95.738281 136.78125 100 136.78125 C 104.121094 136.78125 108.148438 136.640625 112.125 136.429688 C 108.058594 141.914062 103.917969 146.902344 99.789062 151.390625 C 95.664062 146.890625 91.527344 141.894531 87.46875 136.40625 Z M 87.46875 136.40625 "/>
</g>
</svg>
